<svg xmlns="http://www.w3.org/2000/svg" xmlns:xlink="http://www.w3.org/1999/xlink" width="1040" height="624.46"><rect width="1040" height="624.46" rx="5" ry="5" class="a"/><svg y="0%" x="0%"><circle cx="20" cy="20" r="6" fill="#ff5f58"/><circle cx="40" cy="20" r="6" fill="#ffbd2e"/><circle cx="60" cy="20" r="6" fill="#18c132"/></svg><svg height="564.46" viewBox="0 0 100 56.446" width="1000" x="15" xmlns="http://www.w3.org/2000/svg" xmlns:xlink="http://www.w3.org/1999/xlink" y="50"><style>@keyframes q{0%{transform:translateX(-400px)}2.3%{transform:translateX(-500px)}2.9%{transform:translateX(-600px)}3.7%{transform:translateX(-700px)}4.3%{transform:translateX(-800px)}6.7%{transform:translateX(-900px)}7%{transform:translateX(-1000px)}7.3%{transform:translateX(-1100px)}9.1%{transform:translateX(-1200px)}12.1%{transform:translateX(-1300px)}12.2%{transform:translateX(-1500px)}12.3%{transform:translateX(-1800px)}23.7%{transform:translateX(-2000px)}23.8%{transform:translateX(-3100px)}48.9%{transform:translateX(-3200px)}49%{transform:translateX(-3300px)}49.1%{transform:translateX(-4000px)}69.1%{transform:translateX(-4100px)}69.2%{transform:translateX(-4500px)}69.3%{transform:translateX(-4800px)}89.6%{transform:translateX(-5000px)}to{transform:translateX(-5100px)}}.a{fill:#fdf6e3}.f,.g,.h,.i,.j{fill:#657b83;white-space:pre}.g,.h,.i,.j{fill:#cf6e00}.h,.i,.j{fill:#cf7000}.i,.j{fill:#49483e}.j{fill:#f9005a;font-weight:700}.k{fill:#ec3533}.k,.l,.m{white-space:pre}.l{fill:#679c00;text-decoration:underline}.m{fill:#ae81ff}</style><g font-family="Monaco,Consolas,Menlo,'Bitstream Vera Sans Mono','Powerline Symbols',monospace" font-size="1.67"><defs><symbol id="1"><text y="1.67" class="f">slidehustle~&gt;</text></symbol><symbol id="2"><text y="1.67" class="f">slidehustle~&gt;./slideh</text><text x="22.044" y="1.67" class="f">README.md</text></symbol><symbol id="3"><text y="1.67" class="g">#</text><text x="2.004" y="1.67" class="h">Slide</text><text x="8.016" y="1.67" class="h">Hustle</text><text x="15.03" y="1.67" class="h">📟</text></symbol><symbol id="4"><text y="1.67" class="i">Minimalist</text><text x="11.022" y="1.67" class="i">terminal</text><text x="20.04" y="1.67" class="i">markdown</text><text x="29.058" y="1.67" class="i">slide</text><text x="35.07" y="1.67" class="i">decks</text></symbol><symbol id="5"><text y="1.67" class="g">#</text><text x="2.004" y="1.67" class="h">What</text><text x="7.014" y="1.67" class="h">is</text><text x="10.02" y="1.67" class="h">this?</text></symbol><symbol id="6"><text y="1.67" class="j">**Slide</text><text x="8.016" y="1.67" class="j">Hustle**</text><text x="17.034" y="1.67" class="i">is</text><text x="20.04" y="1.67" class="i">a</text><text x="22.044" y="1.67" class="i">single-file</text><text x="34.068" y="1.67" class="i">shell</text><text x="40.08" y="1.67" class="i">script</text><text x="47.094" y="1.67" class="i">that</text><text x="52.104" y="1.67" class="i">presents</text><text x="61.122" y="1.67" class="i">a</text><text x="63.126" y="1.67" class="i">Markdown</text><text x="72.144" y="1.67" class="i">file</text><text x="77.154" y="1.67" class="i">as</text><text x="80.16" y="1.67" class="i">a</text><text x="82.164" y="1.67" class="i">slide</text><text x="88.176" y="1.67" class="i">deck,</text></symbol><symbol id="7"><text y="1.67" class="i">right</text><text x="6.012" y="1.67" class="i">in</text><text x="9.018" y="1.67" class="i">your</text><text x="14.028" y="1.67" class="i">terminal.</text></symbol><symbol id="8"><text y="1.67" class="i">-</text><text x="2.004" y="1.67" class="i">One</text><text x="6.012" y="1.67" class="k">`#</text><text x="9.018" y="1.67" class="k">Header`</text><text x="17.034" y="1.67" class="i">per</text><text x="21.042" y="1.67" class="i">slide</text></symbol><symbol id="9"><text y="1.67" class="i">-</text><text x="2.004" y="1.67" class="i">No</text><text x="5.01" y="1.67" class="i">GUI,</text><text x="10.02" y="1.67" class="i">no</text><text x="13.026" y="1.67" class="i">browser,</text><text x="22.044" y="1.67" class="i">no</text><text x="25.05" y="1.67" class="i">dependencies</text><text x="38.076" y="1.67" class="i">except</text><text x="45.09" y="1.67" class="i">[</text><text x="46.092" y="1.67" class="k">`bat`</text><text x="51.102" y="1.67" class="i">](</text><text x="53.106" y="1.67" class="l">https://github.com/sharkdp/bat</text><text x="83.166" y="1.67" class="i">)</text></symbol><symbol id="10"><text y="1.67" class="i">-</text><text x="2.004" y="1.67" class="i">Great</text><text x="8.016" y="1.67" class="i">for</text><text x="12.024" y="1.67" class="i">lightning</text><text x="22.044" y="1.67" class="i">talks,</text><text x="29.058" y="1.67" class="i">live</text><text x="34.068" y="1.67" class="i">coding</text><text x="41.082" y="1.67" class="i">demos,</text><text x="48.096" y="1.67" class="i">and</text><text x="52.104" y="1.67" class="i">[asciinema](</text><text x="64.128" y="1.67" class="l">https://asciinema.org/</text><text x="86.172" y="1.67" class="i">)</text><text x="88.176" y="1.67" class="i">casts.</text></symbol><symbol id="11"><text y="1.67" class="i">Example:</text></symbol><symbol id="12"><text x="4.008" y="1.67" class="m">./slideh</text><text x="13.026" y="1.67" class="m">README.md</text></symbol><symbol id="13"><text y="1.67" class="g">#</text><text x="2.004" y="1.67" class="h">Usage</text></symbol><symbol id="14"><text y="1.67" class="i">```</text><text x="3.006" y="1.67" style="white-space:pre" fill="#684d99">bash</text></symbol><symbol id="15"><text y="1.67" class="i">slideh</text><text x="7.014" y="1.67" class="i">talk.md</text></symbol><symbol id="16"><text y="1.67" class="i">```</text></symbol><symbol id="17"><text y="1.67" class="i">Navigate</text><text x="9.018" y="1.67" class="i">with:</text></symbol><symbol id="18"><text y="1.67" class="i">*</text><text x="2.004" y="1.67" class="k">`n`</text><text x="6.012" y="1.67" class="i">–</text><text x="8.016" y="1.67" class="i">next</text></symbol><symbol id="19"><text y="1.67" class="i">*</text><text x="2.004" y="1.67" class="k">`p`</text><text x="6.012" y="1.67" class="i">–</text><text x="8.016" y="1.67" class="i">previous</text></symbol><symbol id="20"><text y="1.67" class="i">*</text><text x="2.004" y="1.67" class="k">`q`</text><text x="6.012" y="1.67" class="i">–</text><text x="8.016" y="1.67" class="i">quit</text></symbol><symbol id="21"><text y="1.67" class="i">Each</text><text x="5.01" y="1.67" class="i">top-level</text><text x="15.03" y="1.67" class="k">`#`</text><text x="19.038" y="1.67" class="i">starts</text><text x="26.052" y="1.67" class="i">a</text><text x="28.056" y="1.67" class="i">new</text><text x="32.064" y="1.67" class="i">slide.</text></symbol><symbol id="22"><text y="1.67" class="g">#</text><text x="2.004" y="1.67" class="h">Installation</text><text x="15.03" y="1.67" class="h">and</text><text x="19.038" y="1.67" class="h">Dependencies</text></symbol><symbol id="23"><text y="1.67" class="i">Install</text><text x="8.016" y="1.67" class="i">[</text><text x="9.018" y="1.67" class="k">`bat`</text><text x="14.028" y="1.67" class="i">](</text><text x="16.032" y="1.67" class="l">https://github.com/sharkdp/bat</text><text x="46.092" y="1.67" class="i">),</text><text x="49.098" y="1.67" class="i">then</text><text x="54.108" y="1.67" class="i">run</text><text x="58.116" y="1.67" class="i">slideh:</text></symbol><symbol id="24"><text y="1.67" class="i">curl</text><text x="5.01" y="1.67" class="h">-o</text><text x="8.016" y="1.67" class="i">slideh</text><text x="15.03" y="1.67" class="i">https://raw.githubusercontent.com/statusfailed/slidehustle/refs/heads/master/slideh</text></symbol><symbol id="25"><text y="1.67" class="i">chmod</text><text x="6.012" y="1.67" class="i">+x</text><text x="9.018" y="1.67" class="i">slideh</text></symbol><symbol id="26"><text y="1.67" class="i">./slideh</text><text x="9.018" y="1.67" class="i">README.md</text></symbol><symbol id="a"><path fill="transparent" d="M0 0h100v26H0z"/></symbol><symbol id="b"><path fill="#657b83" d="M0 0h1.102v2.171H0z"/></symbol></defs><path class="a" d="M0 0h100v56.446H0z"/><g style="animation-duration:10.647571s;animation-iteration-count:infinite;animation-name:q;animation-timing-function:steps(1,end)"><svg width="5200"><svg><use xlink:href="#a"/><use xlink:href="#b" x="-.004"/></svg><svg x="100"><use xlink:href="#a"/><use xlink:href="#b" x="-.004"/></svg><svg x="200"><use xlink:href="#a"/><use xlink:href="#b" x="-.004"/></svg><svg x="300"><use xlink:href="#a"/><use xlink:href="#b" x="-.004"/></svg><svg x="400"><use xlink:href="#a"/><use xlink:href="#b" x="12.996"/><use xlink:href="#1"/></svg><svg x="500"><use xlink:href="#a"/><use xlink:href="#b" x="13.996"/><text y="1.67" class="f">slidehustle~&gt;.</text></svg><svg x="600"><use xlink:href="#a"/><use xlink:href="#b" x="14.996"/><text y="1.67" class="f">slidehustle~&gt;./</text></svg><svg x="700"><use xlink:href="#a"/><use xlink:href="#b" x="15.996"/><text y="1.67" class="f">slidehustle~&gt;./s</text></svg><svg x="800"><use xlink:href="#a"/><use xlink:href="#b" x="21.996"/><text y="1.67" class="f">slidehustle~&gt;./slideh</text></svg><svg x="900"><use xlink:href="#a"/><use xlink:href="#b" x="22.996"/><text y="1.67" class="f">slidehustle~&gt;./slideh</text><text x="22.044" y="1.67" class="f">R</text></svg><svg x="1000"><use xlink:href="#a"/><use xlink:href="#b" x="23.996"/><text y="1.67" class="f">slidehustle~&gt;./slideh</text><text x="22.044" y="1.67" class="f">RE</text></svg><svg x="1100"><use xlink:href="#a"/><use xlink:href="#b" x="24.996"/><text y="1.67" class="f">slidehustle~&gt;./slideh</text><text x="22.044" y="1.67" class="f">REA</text></svg><svg x="1200"><use xlink:href="#a"/><use xlink:href="#b" x="31.996"/><use xlink:href="#2"/></svg><svg x="1300"><use xlink:href="#a"/><use xlink:href="#b" x="-.004" y="2.146"/><use xlink:href="#2"/></svg><svg x="1400"><use xlink:href="#a"/><use xlink:href="#b" x="-.004"/></svg><svg x="1500"><use xlink:href="#a"/><use xlink:href="#b" x="-.004"/></svg><svg x="1600"><use xlink:href="#a"/><use xlink:href="#b" x="-.004" y="4.317"/><use xlink:href="#3"/></svg><svg x="1700"><use xlink:href="#a"/><use xlink:href="#b" x="-.004" y="6.488"/><use xlink:href="#3"/><use xlink:href="#4" y="4.342"/></svg><svg x="1800"><use xlink:href="#a"/><use xlink:href="#b" x="-.004" y="8.659"/><use xlink:href="#3"/><use xlink:href="#4" y="4.342"/></svg><svg x="1900"><use xlink:href="#a"/><use xlink:href="#b" x="-.004"/></svg><svg x="2000"><use xlink:href="#a"/><use xlink:href="#b" x="-.004"/></svg><svg x="2100"><use xlink:href="#a"/><use xlink:href="#b" x="-.004" y="4.317"/><use xlink:href="#5"/></svg><svg x="2200"><use xlink:href="#a"/><use xlink:href="#b" x="-.004" y="10.83"/><use xlink:href="#5"/><use xlink:href="#6" y="4.342"/><use xlink:href="#7" y="6.513"/></svg><svg x="2300"><use xlink:href="#a"/><use xlink:href="#b" x="-.004" y="13.001"/><use xlink:href="#5"/><use xlink:href="#6" y="4.342"/><use xlink:href="#7" y="6.513"/><use xlink:href="#8" y="10.855"/></svg><svg x="2400"><use xlink:href="#a"/><use xlink:href="#b" x="-.004" y="15.172"/><use xlink:href="#5"/><use xlink:href="#6" y="4.342"/><use xlink:href="#7" y="6.513"/><use xlink:href="#8" y="10.855"/><use xlink:href="#9" y="13.026"/></svg><svg x="2500"><use xlink:href="#a"/><use xlink:href="#b" x="-.004" y="17.343"/><use xlink:href="#5"/><use xlink:href="#6" y="4.342"/><use xlink:href="#7" y="6.513"/><use xlink:href="#8" y="10.855"/><use xlink:href="#9" y="13.026"/><use xlink:href="#10" y="15.197"/></svg><svg x="2600"><use xlink:href="#a"/><use xlink:href="#b" x="-.004" y="19.514"/><use xlink:href="#5"/><use xlink:href="#6" y="4.342"/><use xlink:href="#7" y="6.513"/><use xlink:href="#8" y="10.855"/><use xlink:href="#9" y="13.026"/><use xlink:href="#10" y="15.197"/></svg><svg x="2700"><use xlink:href="#a"/><use xlink:href="#b" x="-.004" y="21.685"/><use xlink:href="#5"/><use xlink:href="#6" y="4.342"/><use xlink:href="#7" y="6.513"/><use xlink:href="#8" y="10.855"/><use xlink:href="#9" y="13.026"/><use xlink:href="#10" y="15.197"/><use xlink:href="#11" y="19.539"/></svg><svg x="2800"><use xlink:href="#a"/><use xlink:href="#b" x="-.004" y="23.856"/><use xlink:href="#5"/><use xlink:href="#6" y="4.342"/><use xlink:href="#7" y="6.513"/><use xlink:href="#8" y="10.855"/><use xlink:href="#9" y="13.026"/><use xlink:href="#10" y="15.197"/><use xlink:href="#11" y="19.539"/></svg><svg x="2900"><use xlink:href="#a"/><use xlink:href="#b" x="-.004" y="26.027"/><use xlink:href="#5"/><use xlink:href="#6" y="4.342"/><use xlink:href="#7" y="6.513"/><use xlink:href="#8" y="10.855"/><use xlink:href="#9" y="13.026"/><use xlink:href="#10" y="15.197"/><use xlink:href="#11" y="19.539"/><use xlink:href="#12" y="23.881"/></svg><svg x="3000"><use xlink:href="#a"/><use xlink:href="#b" x="-.004" y="28.198"/><use xlink:href="#5"/><use xlink:href="#6" y="4.342"/><use xlink:href="#7" y="6.513"/><use xlink:href="#8" y="10.855"/><use xlink:href="#9" y="13.026"/><use xlink:href="#10" y="15.197"/><use xlink:href="#11" y="19.539"/><use xlink:href="#12" y="23.881"/></svg><svg x="3100"><use xlink:href="#a"/><use xlink:href="#b" x="-.004" y="32.54"/><use xlink:href="#5"/><use xlink:href="#6" y="4.342"/><use xlink:href="#7" y="6.513"/><use xlink:href="#8" y="10.855"/><use xlink:href="#9" y="13.026"/><use xlink:href="#10" y="15.197"/><use xlink:href="#11" y="19.539"/><use xlink:href="#12" y="23.881"/><text y="29.893" class="i">![slide</text><text x="8.016" y="29.893" class="i">hustle</text><text x="15.03" y="29.893" class="i">README</text><text x="22.044" y="29.893" class="i">example</text><text x="30.06" y="29.893" class="i">cast](</text><text x="36.072" y="29.893" class="l">./propaganda/slideh-readme-cast.svg</text><text x="71.142" y="29.893" class="i">)</text></svg><svg x="3200"><use xlink:href="#a"/><use xlink:href="#b" x="-.004"/></svg><svg x="3300"><use xlink:href="#a"/><use xlink:href="#b" x="-.004"/></svg><svg x="3400"><use xlink:href="#a"/><use xlink:href="#b" x="-.004" y="4.317"/><use xlink:href="#13"/></svg><svg x="3500"><use xlink:href="#a"/><use xlink:href="#b" x="-.004" y="6.488"/><use xlink:href="#13"/><use xlink:href="#14" y="4.342"/></svg><svg x="3600"><use xlink:href="#a"/><use xlink:href="#b" x="-.004" y="8.659"/><use xlink:href="#13"/><use xlink:href="#14" y="4.342"/><use xlink:href="#15" y="6.513"/></svg><svg x="3700"><use xlink:href="#a"/><use xlink:href="#b" x="-.004" y="17.343"/><use xlink:href="#13"/><use xlink:href="#14" y="4.342"/><use xlink:href="#15" y="6.513"/><use xlink:href="#16" y="8.684"/><use xlink:href="#17" y="13.026"/></svg><svg x="3800"><use xlink:href="#a"/><use xlink:href="#b" x="-.004" y="26.027"/><use xlink:href="#13"/><use xlink:href="#14" y="4.342"/><use xlink:href="#15" y="6.513"/><use xlink:href="#16" y="8.684"/><use xlink:href="#17" y="13.026"/><use xlink:href="#18" y="17.368"/><use xlink:href="#19" y="19.539"/><use xlink:href="#20" y="21.71"/></svg><svg x="3900"><use xlink:href="#a"/><use xlink:href="#b" x="-.004" y="28.198"/><use xlink:href="#13"/><use xlink:href="#14" y="4.342"/><use xlink:href="#15" y="6.513"/><use xlink:href="#16" y="8.684"/><use xlink:href="#17" y="13.026"/><use xlink:href="#18" y="17.368"/><use xlink:href="#19" y="19.539"/><use xlink:href="#20" y="21.71"/><use xlink:href="#21" y="26.052"/></svg><svg x="4000"><use xlink:href="#a"/><use xlink:href="#b" x="-.004" y="30.369"/><use xlink:href="#13"/><use xlink:href="#14" y="4.342"/><use xlink:href="#15" y="6.513"/><use xlink:href="#16" y="8.684"/><use xlink:href="#17" y="13.026"/><use xlink:href="#18" y="17.368"/><use xlink:href="#19" y="19.539"/><use xlink:href="#20" y="21.71"/><use xlink:href="#21" y="26.052"/></svg><svg x="4100"><use xlink:href="#a"/><use xlink:href="#b" x="-.004"/></svg><svg x="4200"><use xlink:href="#a"/><use xlink:href="#b" x="-.004"/></svg><svg x="4300"><use xlink:href="#a"/><use xlink:href="#b" x="-.004" y="4.317"/><use xlink:href="#22"/></svg><svg x="4400"><use xlink:href="#a"/><use xlink:href="#b" x="-.004" y="8.659"/><use xlink:href="#22"/><use xlink:href="#23" y="4.342"/></svg><svg x="4500"><use xlink:href="#a"/><use xlink:href="#b" x="-.004" y="10.83"/><use xlink:href="#22"/><use xlink:href="#23" y="4.342"/><use xlink:href="#14" y="8.684"/></svg><svg x="4600"><use xlink:href="#a"/><use xlink:href="#b" x="-.004" y="13.001"/><use xlink:href="#22"/><use xlink:href="#23" y="4.342"/><use xlink:href="#14" y="8.684"/><use xlink:href="#24" y="10.855"/></svg><svg x="4700"><use xlink:href="#a"/><use xlink:href="#b" x="-.004" y="15.172"/><use xlink:href="#22"/><use xlink:href="#23" y="4.342"/><use xlink:href="#14" y="8.684"/><use xlink:href="#24" y="10.855"/><use xlink:href="#25" y="13.026"/></svg><svg x="4800"><use xlink:href="#a"/><use xlink:href="#b" x="-.004" y="17.343"/><use xlink:href="#22"/><use xlink:href="#23" y="4.342"/><use xlink:href="#14" y="8.684"/><use xlink:href="#24" y="10.855"/><use xlink:href="#25" y="13.026"/><use xlink:href="#26" y="15.197"/></svg><svg x="4900"><use xlink:href="#a"/><use xlink:href="#b" x="-.004" y="17.343"/><use xlink:href="#22"/><use xlink:href="#23" y="4.342"/><use xlink:href="#14" y="8.684"/><use xlink:href="#24" y="10.855"/><use xlink:href="#25" y="13.026"/><use xlink:href="#26" y="15.197"/></svg><svg x="5000"><use xlink:href="#a"/><use xlink:href="#b" x="12.996" y="17.343"/><use xlink:href="#22"/><use xlink:href="#23" y="4.342"/><use xlink:href="#14" y="8.684"/><use xlink:href="#24" y="10.855"/><use xlink:href="#25" y="13.026"/><use xlink:href="#26" y="15.197"/><use xlink:href="#1" y="17.368"/></svg><svg x="5100"><use xlink:href="#a"/><use xlink:href="#b" x="-.004" y="21.685"/><use xlink:href="#22"/><use xlink:href="#23" y="4.342"/><use xlink:href="#14" y="8.684"/><use xlink:href="#24" y="10.855"/><use xlink:href="#25" y="13.026"/><use xlink:href="#26" y="15.197"/><use xlink:href="#1" y="17.368"/><text y="21.209" class="f">exit</text></svg></svg></g></g></svg></svg>